# xmcd
#
# Track frame offsets:
#	150
#	19042
#	32990
#	52615
#	72460
#	86850
#	101342
#	115250
#	129395
#	145280
#	163335
#	178882
#	191325
#	209287
#
# Disc length: 3028 seconds
#
# Revision: 2
# Processed by: cddbd v1.5.2PL0 Copyright (c) Steve Scherf et al.
# Submitted via: audiograbber 1.83.01
#
DISCID=c60bd20e
DTITLE=McCready, Mindy - I'm not so tough
DYEAR=1999
DGENRE=Country
TTITLE0=I'm not so tough
TTITLE1=Lucky me
TTITLE2=Dream on
TTITLE3=Two different things
TTITLE4=I love you too
TTITLE5=Thunder and roses
TTITLE6=I've got a feeling
TTITLE7=Tumble and roll
TTITLE8=One in a million
TTITLE9=I don't want you to go
TTITLE10=Hold me
TTITLE11=All I want is everything
TTITLE12=Take me apart
TTITLE13=Over and over
EXTD=
EXTT0=
EXTT1=
EXTT2=
EXTT3=
EXTT4=
EXTT5=
EXTT6=
EXTT7=
EXTT8=
EXTT9=
EXTT10=
EXTT11=
EXTT12=
EXTT13=
PLAYORDER=
